  0
SECTION
  2
HEADER
  9
$ACADVER
  1
AC1024
  9
$ACADMAINTVER
 70
     6
  9
$DWGCODEPAGE
  3
ANSI_1252
  9
$INSBASE
 10
0.0
 20
0.0
 30
0.0
  9
$EXTMIN
 10
1.000000000000000E+20
 20
1.000000000000000E+20
 30
1.000000000000000E+20
  9
$EXTMAX
 10
-1.000000000000000E+20
 20
-1.000000000000000E+20
 30
-1.000000000000000E+20
  9
$LIMMIN
 10
0.0
 20
0.0
  9
$LIMMAX
 10
12.0
 20
9.0
  9
$ORTHOMODE
 70
     0
  9
$REGENMODE
 70
     1
  9
$FILLMODE
 70
     1
  9
$QTEXTMODE
 70
     0
  9
$MIRRTEXT
 70
     1
  9
$LTSCALE
 40
1.0
  9
$ATTMODE
 70
     1
  9
$TEXTSIZE
 40
0.2
  9
$TRACEWID
 40
0.05
  9
$TEXTSTYLE
  7
Standard
  9
$CLAYER
  8
0
  9
$CELTYPE
  6
ByLayer
  9
$CECOLOR
 62
   256
  9
$CELTSCALE
 40
1.0
  9
$DISPSILH
 70
     0
  9
$DIMSCALE
 40
1.0
  9
$DIMASZ
 40
0.18
  9
$DIMEXO
 40
0.0625
  9
$DIMDLI
 40
0.38
  9
$DIMRND
 40
0.0
  9
$DIMDLE
 40
0.0
  9
$DIMEXE
 40
0.18
  9
$DIMTP
 40
0.0
  9
$DIMTM
 40
0.0
  9
$DIMTXT
 40
0.18
  9
$DIMCEN
 40
0.09
  9
$DIMTSZ
 40
0.0
  9
$DIMTOL
 70
     0
  9
$DIMLIM
 70
     0
  9
$DIMTIH
 70
     1
  9
$DIMTOH
 70
     1
  9
$DIMSE1
 70
     0
  9
$DIMSE2
 70
     0
  9
$DIMTAD
 70
     0
  9
$DIMZIN
 70
     0
  9
$DIMBLK
  1

  9
$DIMASO
 70
     1
  9
$DIMSHO
 70
     1
  9
$DIMPOST
  1

  9
$DIMAPOST
  1

  9
$DIMALT
 70
     0
  9
$DIMALTD
 70
     2
  9
$DIMALTF
 40
25.4
  9
$DIMLFAC
 40
1.0
  9
$DIMTOFL
 70
     0
  9
$DIMTVP
 40
0.0
  9
$DIMTIX
 70
     0
  9
$DIMSOXD
 70
     0
  9
$DIMSAH
 70
     0
  9
$DIMBLK1
  1

  9
$DIMBLK2
  1

  9
$DIMSTYLE
  2
Standard
  9
$DIMCLRD
 70
     0
  9
$DIMCLRE
 70
     0
  9
$DIMCLRT
 70
     0
  9
$DIMTFAC
 40
1.0
  9
$DIMGAP
 40
0.09
  9
$DIMJUST
 70
     0
  9
$DIMSD1
 70
     0
  9
$DIMSD2
 70
     0
  9
$DIMTOLJ
 70
     1
  9
$DIMTZIN
 70
     0
  9
$DIMALTZ
 70
     0
  9
$DIMALTTZ
 70
     0
  9
$DIMUPT
 70
     0
  9
$DIMDEC
 70
     4
  9
$DIMTDEC
 70
     4
  9
$DIMALTU
 70
     2
  9
$DIMALTTD
 70
     2
  9
$DIMTXSTY
  7
Standard
  9
$DIMAUNIT
 70
     0
  9
$DIMADEC
 70
     0
  9
$DIMALTRND
 40
0.0
  9
$DIMAZIN
 70
     0
  9
$DIMDSEP
 70
    46
  9
$DIMATFIT
 70
     3
  9
$DIMFRAC
 70
     0
  9
$DIMLDRBLK
  1

  9
$DIMLUNIT
 70
     2
  9
$DIMLWD
 70
    -2
  9
$DIMLWE
 70
    -2
  9
$DIMTMOVE
 70
     0
  9
$DIMFXL
 40
1.0
  9
$DIMFXLON
 70
     0
  9
$DIMJOGANG
 40
0.7853981633974483
  9
$DIMTFILL
 70
     0
  9
$DIMTFILLCLR
 70
     0
  9
$DIMARCSYM
 70
     0
  9
$DIMLTYPE
  6

  9
$DIMLTEX1
  6

  9
$DIMLTEX2
  6

  9
$DIMTXTDIRECTION
 70
     0
  9
$LUNITS
 70
     2
  9
$LUPREC
 70
     4
  9
$SKETCHINC
 40
0.1
  9
$FILLETRAD
 40
0.5
  9
$AUNITS
 70
     0
  9
$AUPREC
 70
     0
  9
$MENU
  1
.
  9
$ELEVATION
 40
0.0
  9
$PELEVATION
 40
0.0
  9
$THICKNESS
 40
0.0
  9
$LIMCHECK
 70
     0
  9
$CHAMFERA
 40
0.5
  9
$CHAMFERB
 40
0.5
  9
$CHAMFERC
 40
1.0
  9
$CHAMFERD
 40
0.0
  9
$SKPOLY
 70
     0
  9
$TDCREATE
 40
2459523.466142974
  9
$TDUCREATE
 40
2459523.591142974
  9
$TDUPDATE
 40
2459523.466143438
  9
$TDUUPDATE
 40
2459523.591143438
  9
$TDINDWG
 40
0.0000000116
  9
$TDUSRTIMER
 40
0.0000000116
  9
$USRTIMER
 70
     1
  9
$ANGBASE
 50
0.0
  9
$ANGDIR
 70
     0
  9
$PDMODE
 70
     0
  9
$PDSIZE
 40
0.0
  9
$PLINEWID
 40
0.0
  9
$SPLFRAME
 70
     0
  9
$SPLINETYPE
 70
     6
  9
$SPLINESEGS
 70
     8
  9
$HANDSEED
  5
B9
  9
$SURFTAB1
 70
     6
  9
$SURFTAB2
 70
     6
  9
$SURFTYPE
 70
     6
  9
$SURFU
 70
     6
  9
$SURFV
 70
     6
  9
$UCSBASE
  2

  9
$UCSNAME
  2

  9
$UCSORG
 10
0.0
 20
0.0
 30
0.0
  9
$UCSXDIR
 10
1.0
 20
0.0
 30
0.0
  9
$UCSYDIR
 10
0.0
 20
1.0
 30
0.0
  9
$UCSORTHOREF
  2

  9
$UCSORTHOVIEW
 70
     0
  9
$UCSORGTOP
 10
0.0
 20
0.0
 30
0.0
  9
$UCSORGBOTTOM
 10
0.0
 20
0.0
 30
0.0
  9
$UCSORGLEFT
 10
0.0
 20
0.0
 30
0.0
  9
$UCSORGRIGHT
 10
0.0
 20
0.0
 30
0.0
  9
$UCSORGFRONT
 10
0.0
 20
0.0
 30
0.0
  9
$UCSORGBACK
 10
0.0
 20
0.0
 30
0.0
  9
$PUCSBASE
  2

  9
$PUCSNAME
  2

  9
$PUCSORG
 10
0.0
 20
0.0
 30
0.0
  9
$PUCSXDIR
 10
1.0
 20
0.0
 30
0.0
  9
$PUCSYDIR
 10
0.0
 20
1.0
 30
0.0
  9
$PUCSORTHOREF
  2

  9
$PUCSORTHOVIEW
 70
     0
  9
$PUCSORGTOP
 10
0.0
 20
0.0
 30
0.0
  9
$PUCSORGBOTTOM
 10
0.0
 20
0.0
 30
0.0
  9
$PUCSORGLEFT
 10
0.0
 20
0.0
 30
0.0
  9
$PUCSORGRIGHT
 10
0.0
 20
0.0
 30
0.0
  9
$PUCSORGFRONT
 10
0.0
 20
0.0
 30
0.0
  9
$PUCSORGBACK
 10
0.0
 20
0.0
 30
0.0
  9
$USERI1
 70
     0
  9
$USERI2
 70
     0
  9
$USERI3
 70
     0
  9
$USERI4
 70
     0
  9
$USERI5
 70
     0
  9
$USERR1
 40
0.0
  9
$USERR2
 40
0.0
  9
$USERR3
 40
0.0
  9
$USERR4
 40
0.0
  9
$USERR5
 40
0.0
  9
$WORLDVIEW
 70
     1
  9
$SHADEDGE
 70
     3
  9
$SHADEDIF
 70
    70
  9
$TILEMODE
 70
     1
  9
$MAXACTVP
 70
    64
  9
$PINSBASE
 10
0.0
 20
0.0
 30
0.0
  9
$PLIMCHECK
 70
     0
  9
$PEXTMIN
 10
1.000000000000000E+20
 20
1.000000000000000E+20
 30
1.000000000000000E+20
  9
$PEXTMAX
 10
-1.000000000000000E+20
 20
-1.000000000000000E+20
 30
-1.000000000000000E+20
  9
$PLIMMIN
 10
0.0
 20
0.0
  9
$PLIMMAX
 10
12.0
 20
9.0
  9
$UNITMODE
 70
     0
  9
$VISRETAIN
 70
     1
  9
$PLINEGEN
 70
     0
  9
$PSLTSCALE
 70
     1
  9
$TREEDEPTH
 70
  3020
  9
$CMLSTYLE
  2
Standard
  9
$CMLJUST
 70
     0
  9
$CMLSCALE
 40
1.0
  9
$PROXYGRAPHICS
 70
     1
  9
$MEASUREMENT
 70
     0
  9
$CELWEIGHT
370
    -1
  9
$ENDCAPS
280
     0
  9
$JOINSTYLE
280
     0
  9
$LWDISPLAY
290
     1
  9
$INSUNITS
 70
     1
  9
$HYPERLINKBASE
  1

  9
$STYLESHEET
  1

  9
$XEDIT
290
     1
  9
$CEPSNTYPE
380
     0
  9
$PSTYLEMODE
290
     1
  9
$FINGERPRINTGUID
  2
{95C2AA5D-D741-4E72-93A9-E4792DCDF8C3}
  9
$VERSIONGUID
  2
{FAEB1C32-E019-11D5-929B-00C0DF256EC4}
  9
$EXTNAMES
290
     1
  9
$PSVPSCALE
 40
0.0
  9
$OLESTARTUP
290
     0
  9
$SORTENTS
280
   127
  9
$INDEXCTL
280
     0
  9
$HIDETEXT
280
     1
  9
$XCLIPFRAME
280
     2
  9
$HALOGAP
280
     0
  9
$OBSCOLOR
 70
   257
  9
$OBSLTYPE
280
     0
  9
$INTERSECTIONDISPLAY
280
     0
  9
$INTERSECTIONCOLOR
 70
   257
  9
$DIMASSOC
280
     2
  9
$PROJECTNAME
  1

  9
$CAMERADISPLAY
290
     0
  9
$LENSLENGTH
 40
50.0
  9
$CAMERAHEIGHT
 40
0.0
  9
$STEPSPERSEC
 40
2.0
  9
$STEPSIZE
 40
6.0
  9
$3DDWFPREC
 40
2.0
  9
$PSOLWIDTH
 40
0.25
  9
$PSOLHEIGHT
 40
4.0
  9
$LOFTANG1
 40
1.570796326794897
  9
$LOFTANG2
 40
1.570796326794897
  9
$LOFTMAG1
 40
0.0
  9
$LOFTMAG2
 40
0.0
  9
$LOFTPARAM
 70
     7
  9
$LOFTNORMALS
280
     1
  9
$LATITUDE
 40
37.795
  9
$LONGITUDE
 40
-122.394
  9
$NORTHDIRECTION
 40
0.0
  9
$TIMEZONE
 70
 -8000
  9
$LIGHTGLYPHDISPLAY
280
     1
  9
$TILEMODELIGHTSYNCH
280
     1
  9
$CMATERIAL
347
3C
  9
$SOLIDHIST
280
     1
  9
$SHOWHIST
280
     1
  9
$DWFFRAME
280
     2
  9
$DGNFRAME
280
     2
  9
$REALWORLDSCALE
290
     1
  9
$INTERFERECOLOR
 62
   256
  9
$CSHADOW
280
     0
  9
$SHADOWPLANELOCATION
 40
0.0
  0
ENDSEC
  0
SECTION
  2
CLASSES
  0
CLASS
  1
ACDBDICTIONARYWDFLT
  2
AcDbDictionaryWithDefault
  3
ObjectDBX Classes
 90
        0
 91
        4
280
     0
281
     0
  0
CLASS
  1
VISUALSTYLE
  2
AcDbVisualStyle
  3
ObjectDBX Classes
 90
     4095
 91
        4
280
     0
281
     0
  0
CLASS
  1
MATERIAL
  2
AcDbMaterial
  3
ObjectDBX Classes
 90
     1153
 91
        4
280
     0
281
     0
  0
CLASS
  1
SUN
  2
AcDbSun
  3
SCENEOE
 90
     1024
 91
        4
280
     0
281
     0
  0
ENDSEC
  0
SECTION
  2
TABLES
  0
TABLE
  2
VPORT
  5
8
330
0
100
AcDbSymbolTable
 70
     1
  0
VPORT
  5
29
330
8
100
AcDbSymbolTableRecord
100
AcDbViewportTableRecord
  2
*Active
 70
     0
 10
0.0
 20
0.0
 11
1.0
 21
1.0
 12
0.0
 22
0.0
 13
0.0
 23
0.0
 14
0.5
 24
0.5
 15
0.5
 25
0.5
 16
0.0
 26
0.0
 36
1.0
 17
350.0
 27
-275.0
 37
0.0
 40
300.0
 41
2.333333333333333
 42
50.0
 43
0.0
 44
0.0
 50
0.0
 51
0.0
 71
     0
 72
   100
 73
     1
 74
     3
 75
     0
 76
     0
 77
     0
 78
     0
281
     0
 65
     1
110
0.0
120
0.0
130
0.0
111
1.0
121
0.0
131
0.0
112
0.0
122
1.0
132
0.0
 79
     0
146
0.0
 60
     3
 61
     5
292
     1
282
     1
141
0.0
142
0.0
 63
   250
361
3F
  0
ENDTAB
  0
TABLE
  2
LTYPE
  5
5
330
0
100
AcDbSymbolTable
 70
     1
  0
LTYPE
  5
14
330
5
100
AcDbSymbolTableRecord
100
AcDbLinetypeTableRecord
  2
ByBlock
 70
     0
  3

 72
    65
 73
     0
 40
0.0
  0
LTYPE
  5
15
330
5
100
AcDbSymbolTableRecord
100
AcDbLinetypeTableRecord
  2
ByLayer
 70
     0
  3

 72
    65
 73
     0
 40
0.0
  0
LTYPE
  5
16
330
5
100
AcDbSymbolTableRecord
100
AcDbLinetypeTableRecord
  2
Continuous
 70
     0
  3
Solid line
 72
    65
 73
     0
 40
0.0
  0
ENDTAB
  0
TABLE
  2
LAYER
  5
2
330
0
100
AcDbSymbolTable
 70
     2
  0
LAYER
  5
10
330
2
100
AcDbSymbolTableRecord
100
AcDbLayerTableRecord
  2
0
 70
     0
 62
     7
  6
Continuous
370
    -3
390
F
347
3E
  0
LAYER
  5
40
330
2
100
AcDbSymbolTableRecord
100
AcDbLayerTableRecord
  2
Capa 2
 70
     0
 62
     7
  6
Continuous
370
    -3
390
F
347
3E
  0
ENDTAB
  0
TABLE
  2
STYLE
  5
3
330
0
100
AcDbSymbolTable
 70
     1
  0
STYLE
  5
11
330
3
100
AcDbSymbolTableRecord
100
AcDbTextStyleTableRecord
  2
Standard
 70
     0
 40
0.0
 41
1.0
 50
0.0
 71
     0
 42
0.2
  3
txt
  4

  0
ENDTAB
  0
TABLE
  2
VIEW
  5
6
330
0
100
AcDbSymbolTable
 70
     0
  0
ENDTAB
  0
TABLE
  2
UCS
  5
7
330
0
100
AcDbSymbolTable
 70
     0
  0
ENDTAB
  0
TABLE
  2
APPID
  5
9
330
0
100
AcDbSymbolTable
 70
     1
  0
APPID
  5
12
330
9
100
AcDbSymbolTableRecord
100
AcDbRegAppTableRecord
  2
ACAD
 70
     0
  0
ENDTAB
  0
TABLE
  2
DIMSTYLE
  5
A
330
0
100
AcDbSymbolTable
 70
     1
100
AcDbDimStyleTable
  0
DIMSTYLE
105
27
330
A
100
AcDbSymbolTableRecord
100
AcDbDimStyleTableRecord
  2
Standard
 70
     0
178
     0
340
11
  0
ENDTAB
  0
TABLE
  2
BLOCK_RECORD
  5
1
330
0
100
AcDbSymbolTable
 70
     4
  0
BLOCK_RECORD
  5
1F
330
1
100
AcDbSymbolTableRecord
100
AcDbBlockTableRecord
  2
*Model_Space
340
22
 70
     0
280
     1
281
     0
  0
BLOCK_RECORD
  5
1B
330
1
100
AcDbSymbolTableRecord
100
AcDbBlockTableRecord
  2
*Paper_Space
340
1E
 70
     0
280
     1
281
     0
  0
BLOCK_RECORD
  5
23
330
1
100
AcDbSymbolTableRecord
100
AcDbBlockTableRecord
  2
*Paper_Space0
340
26
 70
     0
280
     1
281
     0
  0
BLOCK_RECORD
  5
41
330
1
100
AcDbSymbolTableRecord
100
AcDbBlockTableRecord
  2
block 2
340
0
102
{BLKREFS
331
42
102
}
 70
     0
280
     1
281
     0
  0
BLOCK_RECORD
  5
4D
330
1
100
AcDbSymbolTableRecord
100
AcDbBlockTableRecord
  2
block 3
340
0
102
{BLKREFS
331
4E
102
}
 70
     0
280
     1
281
     0
  0
BLOCK_RECORD
  5
51
330
1
100
AcDbSymbolTableRecord
100
AcDbBlockTableRecord
  2
block 4
340
0
102
{BLKREFS
331
52
102
}
 70
     0
280
     1
281
     0
  0
ENDTAB
  0
ENDSEC
  0
SECTION
  2
BLOCKS
  0
BLOCK
  5
20
330
1F
100
AcDbEntity
  8
0
100
AcDbBlockBegin
  2
*Model_Space
 70
     0
 10
0.0
 20
0.0
 30
0.0
  3
*Model_Space
  1

  0
ENDBLK
  5
21
330
1F
100
AcDbEntity
  8
0
100
AcDbBlockEnd
  0
BLOCK
  5
1C
330
1B
100
AcDbEntity
 67
     1
  8
0
100
AcDbBlockBegin
  2
*Paper_Space
 70
     0
 10
0.0
 20
0.0
 30
0.0
  3
*Paper_Space
  1

  0
ENDBLK
  5
1D
330
1B
100
AcDbEntity
 67
     1
  8
0
100
AcDbBlockEnd
  0
BLOCK
  5
24
330
23
100
AcDbEntity
  8
0
100
AcDbBlockBegin
  2
*Paper_Space0
 70
     0
 10
0.0
 20
0.0
 30
0.0
  3
*Paper_Space0
  1

  0
ENDBLK
  5
25
330
23
100
AcDbEntity
  8
0
100
AcDbBlockEnd
  0
BLOCK
  5
43
330
41
100
AcDbEntity
  8
0
100
AcDbBlockBegin
  2
block 2
 70
     0
 10
0.0
 20
0.0
 30
0.0
  3
block 2
  1

  0
POLYLINE
  5
45
330
41
100
AcDbEntity
  8
Capa 2
 62
     7
420
 16777215
370
    35
100
AcDb2dPolyline
 66
     1
 10
0.0
 20
0.0
 30
0.0
  0
VERTEX
  5
46
330
45
100
AcDbEntity
  8
Capa 2
 62
     7
420
 16777215
370
    35
100
AcDbVertex
100
AcDb2dVertex
 10
698.5
 20
-425.5
 30
0.0
  0
VERTEX
  5
47
330
45
100
AcDbEntity
  8
Capa 2
 62
     7
420
 16777215
370
    35
100
AcDbVertex
100
AcDb2dVertex
 10
-0.5
 20
-425.5
 30
0.0
  0
VERTEX
  5
48
330
45
100
AcDbEntity
  8
Capa 2
 62
     7
420
 16777215
370
    35
100
AcDbVertex
100
AcDb2dVertex
 10
-0.5
 20
-25.49999999999909
 30
0.0
  0
VERTEX
  5
49
330
45
100
AcDbEntity
  8
Capa 2
 62
     7
420
 16777215
370
    35
100
AcDbVertex
100
AcDb2dVertex
 10
698.5
 20
-25.49999999999909
 30
0.0
  0
VERTEX
  5
4A
330
45
100
AcDbEntity
  8
Capa 2
 62
     7
420
 16777215
370
    35
100
AcDbVertex
100
AcDb2dVertex
 10
698.5
 20
-425.5
 30
0.0
  0
SEQEND
  5
4C
330
45
100
AcDbEntity
  8
Capa 2
 62
     7
420
 16777215
370
    35
  0
HATCH
  5
4B
330
41
100
AcDbEntity
  8
Capa 2
 62
     7
420
 16316922
100
AcDbHatch
 10
0.0
 20
0.0
 30
0.0
210
0.0
220
0.0
230
1.0
  2
SOLID
 70
     1
 71
     0
 91
        1
 92
        1
 93
        4
 72
     1
 10
698.5
 20
-425.5
 11
-0.5
 21
-425.5
 72
     1
 10
-0.5
 20
-425.5
 11
-0.5
 21
-25.49999999999909
 72
     1
 10
-0.5
 20
-25.49999999999909
 11
698.5
 21
-25.49999999999909
 72
     1
 10
698.5
 20
-25.49999999999909
 11
698.5
 21
-425.5
 97
        0
 75
     2
 76
     1
 98
        0
  0
ENDBLK
  5
44
330
41
100
AcDbEntity
  8
0
100
AcDbBlockEnd
  0
BLOCK
  5
4F
330
4D
100
AcDbEntity
  8
0
100
AcDbBlockBegin
  2
block 3
 70
     0
 10
0.0
 20
0.0
 30
0.0
  3
block 3
  1

  0
INSERT
  5
52
330
4D
100
AcDbEntity
  8
Capa 2
100
AcDbBlockReference
  2
block 4
 10
0.0
 20
0.0
 30
0.0
  0
ENDBLK
  5
50
330
4D
100
AcDbEntity
  8
0
100
AcDbBlockEnd
  0
BLOCK
  5
53
330
51
100
AcDbEntity
  8
0
100
AcDbBlockBegin
  2
block 4
 70
     0
 10
0.0
 20
0.0
 30
0.0
  3
block 4
  1

  0
POLYLINE
  5
55
330
51
100
AcDbEntity
  8
Capa 2
370
     0
100
AcDb2dPolyline
 66
     1
 10
0.0
 20
0.0
 30
0.0
  0
VERTEX
  5
56
330
55
100
AcDbEntity
  8
Capa 2
370
     0
100
AcDbVertex
100
AcDb2dVertex
 10
312.4207745131898
 20
-245.9808554167721
 30
0.0
  0
VERTEX
  5
57
330
55
100
AcDbEntity
  8
Capa 2
370
     0
100
AcDbVertex
100
AcDb2dVertex
 10
315.2400934255584
 20
-244.0863415062968
 30
0.0
  0
VERTEX
  5
58
330
55
100
AcDbEntity
  8
Capa 2
370
     0
100
AcDbVertex
100
AcDb2dVertex
 10
318.2904500560271
 20
-245.5806863505404
 30
0.0
  0
VERTEX
  5
59
330
55
100
AcDbEntity
  8
Capa 2
370
     0
100
AcDbVertex
100
AcDb2dVertex
 10
318.5214877741419
 20
-248.969545105253
 30
0.0
  0
VERTEX
  5
5A
330
55
100
AcDbEntity
  8
Capa 2
370
     0
100
AcDbVertex
100
AcDb2dVertex
 10
315.7021688617788
 20
-250.8640590157265
 30
0.0
  0
VERTEX
  5
5B
330
55
100
AcDbEntity
  8
Capa 2
370
     0
100
AcDbVertex
100
AcDb2dVertex
 10
312.6518122313028
 20
-249.3697141714847
 30
0.0
  0
VERTEX
  5
5C
330
55
100
AcDbEntity
  8
Capa 2
370
     0
100
AcDbVertex
100
AcDb2dVertex
 10
312.4207745131898
 20
-245.9808554167721
 30
0.0
  0
SEQEND
  5
5E
330
55
100
AcDbEntity
  8
Capa 2
370
     0
  0
HATCH
  5
5D
330
51
100
AcDbEntity
  8
Capa 2
 62
   253
420
 11776947
100
AcDbHatch
 10
0.0
 20
0.0
 30
0.0
210
0.0
220
0.0
230
1.0
  2
SOLID
 70
     1
 71
     0
 91
        1
 92
        1
 93
        6
 72
     1
 10
312.4207745131898
 20
-245.9808554167721
 11
315.2400934255584
 21
-244.0863415062968
 72
     1
 10
315.2400934255584
 20
-244.0863415062968
 11
318.2904500560271
 21
-245.5806863505404
 72
     1
 10
318.2904500560271
 20
-245.5806863505404
 11
318.5214877741419
 21
-248.969545105253
 72
     1
 10
318.5214877741419
 20
-248.969545105253
 11
315.7021688617788
 21
-250.8640590157265
 72
     1
 10
315.7021688617788
 20
-250.8640590157265
 11
312.6518122313028
 21
-249.3697141714847
 72
     1
 10
312.6518122313028
 20
-249.3697141714847
 11
312.4207745131898
 21
-245.9808554167721
 97
        0
 75
     2
 76
     1
 98
        0
  0
POLYLINE
  5
5F
330
51
100
AcDbEntity
  8
Capa 2
370
     0
100
AcDb2dPolyline
 66
     1
 10
0.0
 20
0.0
 30
0.0
  0
VERTEX
  5
60
330
5F
100
AcDbEntity
  8
Capa 2
370
     0
100
AcDbVertex
100
AcDb2dVertex
 10
312.2951792927179
 20
-245.9194874478744
 30
0.0
  0
VERTEX
  5
61
330
5F
100
AcDbEntity
  8
Capa 2
370
     0
100
AcDbVertex
100
AcDb2dVertex
 10
315.2307259765948
 20
-243.9468695123232
 30
0.0
  0
VERTEX
  5
62
330
5F
100
AcDbEntity
  8
Capa 2
370
     0
100
AcDbVertex
100
AcDb2dVertex
 10
318.406677827541
 20
-245.5025823254609
 30
0.0
  0
VERTEX
  5
63
330
5F
100
AcDbEntity
  8
Capa 2
370
     0
100
AcDbVertex
100
AcDb2dVertex
 10
318.6470829946193
 20
-249.0309130741516
 30
0.0
  0
VERTEX
  5
64
330
5F
100
AcDbEntity
  8
Capa 2
370
     0
100
AcDbVertex
100
AcDb2dVertex
 10
315.7115363107459
 20
-251.0035310097019
 30
0.0
  0
VERTEX
  5
65
330
5F
100
AcDbEntity
  8
Capa 2
370
     0
100
AcDbVertex
100
AcDb2dVertex
 10
312.5355844597998
 20
-249.4478181965642
 30
0.0
  0
VERTEX
  5
66
330
5F
100
AcDbEntity
  8
Capa 2
370
     0
100
AcDbVertex
100
AcDb2dVertex
 10
312.2951792927179
 20
-245.9194874478744
 30
0.0
  0
SEQEND
  5
67
330
5F
100
AcDbEntity
  8
Capa 2
370
     0
  0
POLYLINE
  5
68
330
51
100
AcDbEntity
  8
Capa 2
370
     0
100
AcDb2dPolyline
 66
     1
 10
0.0
 20
0.0
 30
0.0
  0
VERTEX
  5
69
330
68
100
AcDbEntity
  8
Capa 2
370
     0
100
AcDbVertex
100
AcDb2dVertex
 10
315.249579032532
 20
-244.2257915667287
 30
0.0
  0
VERTEX
  5
6A
330
68
100
AcDbEntity
  8
Capa 2
370
     0
100
AcDbVertex
100
AcDb2dVertex
 10
312.5463022814165
 20
-246.0423296014715
 30
0.0
  0
VERTEX
  5
6B
330
68
100
AcDbEntity
  8
Capa 2
370
     0
100
AcDbVertex
100
AcDb2dVertex
 10
312.7678543925522
 20
-249.2917382957576
 30
0.0
  0
VERTEX
  5
6C
330
68
100
AcDbEntity
  8
Capa 2
370
     0
100
AcDbVertex
100
AcDb2dVertex
 10
315.692683254807
 20
-250.7246089552937
 30
0.0
  0
VERTEX
  5
6D
330
68
100
AcDbEntity
  8
Capa 2
370
     0
100
AcDbVertex
100
AcDb2dVertex
 10
318.3959600059225
 20
-248.9080709205537
 30
0.0
  0
VERTEX
  5
6E
330
68
100
AcDbEntity
  8
Capa 2
370
     0
100
AcDbVertex
100
AcDb2dVertex
 10
318.1744078947886
 20
-245.6586622262712
 30
0.0
  0
VERTEX
  5
6F
330
68
100
AcDbEntity
  8
Capa 2
370
     0
100
AcDbVertex
100
AcDb2dVertex
 10
315.249579032532
 20
-244.2257915667287
 30
0.0
  0
SEQEND
  5
70
330
68
100
AcDbEntity
  8
Capa 2
370
     0
  0
HATCH
  5
71
330
51
100
AcDbEntity
  8
Capa 2
 62
   253
420
 11776947
100
AcDbHatch
 10
0.0
 20
0.0
 30
0.0
210
0.0
220
0.0
230
1.0
  2
SOLID
 70
     1
 71
     0
 91
        2
 92
        1
 93
        6
 72
     1
 10
312.2951792927179
 20
-245.9194874478744
 11
315.2307259765948
 21
-243.9468695123232
 72
     1
 10
315.2307259765948
 20
-243.9468695123232
 11
318.406677827541
 21
-245.5025823254609
 72
     1
 10
318.406677827541
 20
-245.5025823254609
 11
318.6470829946193
 21
-249.0309130741516
 72
     1
 10
318.6470829946193
 20
-249.0309130741516
 11
315.7115363107459
 21
-251.0035310097019
 72
     1
 10
315.7115363107459
 20
-251.0035310097019
 11
312.5355844597998
 21
-249.4478181965642
 72
     1
 10
312.5355844597998
 20
-249.4478181965642
 11
312.2951792927179
 21
-245.9194874478744
 97
        0
 92
        1
 93
        6
 72
     1
 10
315.249579032532
 20
-244.2257915667287
 11
312.5463022814165
 21
-246.0423296014715
 72
     1
 10
312.5463022814165
 20
-246.0423296014715
 11
312.7678543925522
 21
-249.2917382957576
 72
     1
 10
312.7678543925522
 20
-249.2917382957576
 11
315.692683254807
 21
-250.7246089552937
 72
     1
 10
315.692683254807
 20
-250.7246089552937
 11
318.3959600059225
 21
-248.9080709205537
 72
     1
 10
318.3959600059225
 20
-248.9080709205537
 11
318.1744078947886
 21
-245.6586622262712
 72
     1
 10
318.1744078947886
 20
-245.6586622262712
 11
315.249579032532
 21
-244.2257915667287
 97
        0
 75
     2
 76
     1
 98
        0
  0
POLYLINE
  5
72
330
51
100
AcDbEntity
  8
Capa 2
370
     0
100
AcDb2dPolyline
 66
     1
 10
0.0
 20
0.0
 30
0.0
  0
VERTEX
  5
73
330
72
100
AcDbEntity
  8
Capa 2
370
     0
100
AcDbVertex
100
AcDb2dVertex
 10
341.5111009306183
 20
-217.9254890467992
 30
0.0
  0
VERTEX
  5
74
330
72
100
AcDbEntity
  8
Capa 2
370
     0
100
AcDbVertex
100
AcDb2dVertex
 10
344.3304198429887
 20
-216.0309751363257
 30
0.0
  0
VERTEX
  5
75
330
72
100
AcDbEntity
  8
Capa 2
370
     0
100
AcDbVertex
100
AcDb2dVertex
 10
347.3807764734593
 20
-217.5253199805675
 30
0.0
  0
VERTEX
  5
76
330
72
100
AcDbEntity
  8
Capa 2
370
     0
100
AcDbVertex
100
AcDb2dVertex
 10
347.6118141915722
 20
-220.9141787352819
 30
0.0
  0
VERTEX
  5
77
330
72
100
AcDbEntity
  8
Capa 2
370
     0
100
AcDbVertex
100
AcDb2dVertex
 10
344.7924952792109
 20
-222.8086926457545
 30
0.0
  0
VERTEX
  5
78
330
72
100
AcDbEntity
  8
Capa 2
370
     0
100
AcDbVertex
100
AcDb2dVertex
 10
341.7421386487331
 20
-221.3143478015099
 30
0.0
  0
VERTEX
  5
79
330
72
100
AcDbEntity
  8
Capa 2
370
     0
100
AcDbVertex
100
AcDb2dVertex
 10
341.5111009306183
 20
-217.9254890467992
 30
0.0
  0
SEQEND
  5
7B
330
72
100
AcDbEntity
  8
Capa 2
370
     0
  0
HATCH
  5
7A
330
51
100
AcDbEntity
  8
Capa 2
 62
   253
420
 11776947
100
AcDbHatch
 10
0.0
 20
0.0
 30
0.0
210
0.0
220
0.0
230
1.0
  2
SOLID
 70
     1
 71
     0
 91
        1
 92
        1
 93
        6
 72
     1
 10
341.5111009306183
 20
-217.9254890467992
 11
344.3304198429887
 21
-216.0309751363257
 72
     1
 10
344.3304198429887
 20
-216.0309751363257
 11
347.3807764734593
 21
-217.5253199805675
 72
     1
 10
347.3807764734593
 20
-217.5253199805675
 11
347.6118141915722
 21
-220.9141787352819
 72
     1
 10
347.6118141915722
 20
-220.9141787352819
 11
344.7924952792109
 21
-222.8086926457545
 72
     1
 10
344.7924952792109
 20
-222.8086926457545
 11
341.7421386487331
 21
-221.3143478015099
 72
     1
 10
341.7421386487331
 20
-221.3143478015099
 11
341.5111009306183
 21
-217.9254890467992
 97
        0
 75
     2
 76
     1
 98
        0
  0
POLYLINE
  5
7C
330
51
100
AcDbEntity
  8
Capa 2
370
     0
100
AcDb2dPolyline
 66
     1
 10
0.0
 20
0.0
 30
0.0
  0
VERTEX
  5
7D
330
7C
100
AcDbEntity
  8
Capa 2
370
     0
100
AcDbVertex
100
AcDb2dVertex
 10
341.3855057101482
 20
-217.8641210779024
 30
0.0
  0
VERTEX
  5
7E
330
7C
100
AcDbEntity
  8
Capa 2
370
     0
100
AcDbVertex
100
AcDb2dVertex
 10
344.3210523940143
 20
-215.8915031423503
 30
0.0
  0
VERTEX
  5
7F
330
7C
100
AcDbEntity
  8
Capa 2
370
     0
100
AcDbVertex
100
AcDb2dVertex
 10
347.4970042449695
 20
-217.4472159554889
 30
0.0
  0
VERTEX
  5
80
330
7C
100
AcDbEntity
  8
Capa 2
370
     0
100
AcDbVertex
100
AcDb2dVertex
 10
347.7374094120405
 20
-220.9755467041787
 30
0.0
  0
VERTEX
  5
81
330
7C
100
AcDbEntity
  8
Capa 2
370
     0
100
AcDbVertex
100
AcDb2dVertex
 10
344.8018627281763
 20
-222.9481646397298
 30
0.0
  0
VERTEX
  5
82
330
7C
100
AcDbEntity
  8
Capa 2
370
     0
100
AcDbVertex
100
AcDb2dVertex
 10
341.625910877221
 20
-221.3924518265903
 30
0.0
  0
VERTEX
  5
83
330
7C
100
AcDbEntity
  8
Capa 2
370
     0
100
AcDbVertex
100
AcDb2dVertex
 10
341.3855057101482
 20
-217.8641210779024
 30
0.0
  0
SEQEND
  5
84
330
7C
100
AcDbEntity
  8
Capa 2
370
     0
  0
POLYLINE
  5
85
330
51
100
AcDbEntity
  8
Capa 2
370
     0
100
AcDb2dPolyline
 66
     1
 10
0.0
 20
0.0
 30
0.0
  0
VERTEX
  5
86
330
85
100
AcDbEntity
  8
Capa 2
370
     0
100
AcDbVertex
100
AcDb2dVertex
 10
344.3399054499623
 20
-216.1704251967549
 30
0.0
  0
VERTEX
  5
87
330
85
100
AcDbEntity
  8
Capa 2
370
     0
100
AcDbVertex
100
AcDb2dVertex
 10
341.636628698845
 20
-217.9869632314967
 30
0.0
  0
VERTEX
  5
88
330
85
100
AcDbEntity
  8
Capa 2
370
     0
100
AcDbVertex
100
AcDb2dVertex
 10
341.8581808099734
 20
-221.2363719257846
 30
0.0
  0
VERTEX
  5
89
330
85
100
AcDbEntity
  8
Capa 2
370
     0
100
AcDbVertex
100
AcDb2dVertex
 10
344.78300967223
 20
-222.6692425853234
 30
0.0
  0
VERTEX
  5
8A
330
85
100
AcDbEntity
  8
Capa 2
370
     0
100
AcDbVertex
100
AcDb2dVertex
 10
347.4862864233455
 20
-220.8527045505816
 30
0.0
  0
VERTEX
  5
8B
330
85
100
AcDbEntity
  8
Capa 2
370
     0
100
AcDbVertex
100
AcDb2dVertex
 10
347.2647343122189
 20
-217.6032958562955
 30
0.0
  0
VERTEX
  5
8C
330
85
100
AcDbEntity
  8
Capa 2
370
     0
100
AcDbVertex
100
AcDb2dVertex
 10
344.3399054499623
 20
-216.1704251967549
 30
0.0
  0
SEQEND
  5
8D
330
85
100
AcDbEntity
  8
Capa 2
370
     0
  0
HATCH
  5
8E
330
51
100
AcDbEntity
  8
Capa 2
 62
   253
420
 11776947
100
AcDbHatch
 10
0.0
 20
0.0
 30
0.0
210
0.0
220
0.0
230
1.0
  2
SOLID
 70
     1
 71
     0
 91
        2
 92
        1
 93
        6
 72
     1
 10
341.3855057101482
 20
-217.8641210779024
 11
344.3210523940143
 21
-215.8915031423503
 72
     1
 10
344.3210523940143
 20
-215.8915031423503
 11
347.4970042449695
 21
-217.4472159554889
 72
     1
 10
347.4970042449695
 20
-217.4472159554889
 11
347.7374094120405
 21
-220.9755467041787
 72
     1
 10
347.7374094120405
 20
-220.9755467041787
 11
344.8018627281763
 21
-222.9481646397298
 72
     1
 10
344.8018627281763
 20
-222.9481646397298
 11
341.625910877221
 21
-221.3924518265903
 72
     1
 10
341.625910877221
 20
-221.3924518265903
 11
341.3855057101482
 21
-217.8641210779024
 97
        0
 92
        1
 93
        6
 72
     1
 10
344.3399054499623
 20
-216.1704251967549
 11
341.636628698845
 21
-217.9869632314967
 72
     1
 10
341.636628698845
 20
-217.9869632314967
 11
341.8581808099734
 21
-221.2363719257846
 72
     1
 10
341.8581808099734
 20
-221.2363719257846
 11
344.78300967223
 21
-222.6692425853234
 72
     1
 10
344.78300967223
 20
-222.6692425853234
 11
347.4862864233455
 21
-220.8527045505816
 72
     1
 10
347.4862864233455
 20
-220.8527045505816
 11
347.2647343122189
 21
-217.6032958562955
 72
     1
 10
347.2647343122189
 20
-217.6032958562955
 11
344.3399054499623
 21
-216.1704251967549
 97
        0
 75
     2
 76
     1
 98
        0
  0
POLYLINE
  5
8F
330
51
100
AcDbEntity
  8
Capa 2
370
     0
100
AcDb2dPolyline
 66
     1
 10
0.0
 20
0.0
 30
0.0
  0
VERTEX
  5
90
330
8F
100
AcDbEntity
  8
Capa 2
370
     0
100
AcDbVertex
100
AcDb2dVertex
 10
356.8351062940783
 20
-201.9999999999991
 30
0.0
  0
VERTEX
  5
91
330
8F
100
AcDbEntity
  8
Capa 2
370
     0
100
AcDbVertex
100
AcDb2dVertex
 10
337.6688384072113
 20
-201.9999999999991
 30
0.0
  0
VERTEX
  5
92
330
8F
100
AcDbEntity
  8
Capa 2
370
     0
100
AcDbVertex
100
AcDb2dVertex
 10
328.0857044637778
 20
-218.5984748857682
 30
0.0
  0
VERTEX
  5
93
330
8F
100
AcDbEntity
  8
Capa 2
370
     0
100
AcDbVertex
100
AcDb2dVertex
 10
337.6688384072113
 20
-235.1969497715318
 30
0.0
  0
VERTEX
  5
94
330
8F
100
AcDbEntity
  8
Capa 2
370
     0
100
AcDbVertex
100
AcDb2dVertex
 10
356.8351062940783
 20
-235.1969497715318
 30
0.0
  0
VERTEX
  5
95
330
8F
100
AcDbEntity
  8
Capa 2
370
     0
100
AcDbVertex
100
AcDb2dVertex
 10
366.4182402375136
 20
-218.5984748857682
 30
0.0
  0
VERTEX
  5
96
330
8F
100
AcDbEntity
  8
Capa 2
370
     0
100
AcDbVertex
100
AcDb2dVertex
 10
356.8351062940783
 20
-201.9999999999991
 30
0.0
  0
SEQEND
  5
98
330
8F
100
AcDbEntity
  8
Capa 2
370
     0
  0
HATCH
  5
97
330
51
100
AcDbEntity
  8
Capa 2
 62
   242
420
 12658477
100
AcDbHatch
 10
0.0
 20
0.0
 30
0.0
210
0.0
220
0.0
230
1.0
  2
SOLID
 70
     1
 71
     0
 91
        1
 92
        1
 93
        6
 72
     1
 10
356.8351062940783
 20
-201.9999999999991
 11
337.6688384072113
 21
-201.9999999999991
 72
     1
 10
337.6688384072113
 20
-201.9999999999991
 11
328.0857044637778
 21
-218.5984748857682
 72
     1
 10
328.0857044637778
 20
-218.5984748857682
 11
337.6688384072113
 21
-235.1969497715318
 72
     1
 10
337.6688384072113
 20
-235.1969497715318
 11
356.8351062940783
 21
-235.1969497715318
 72
     1
 10
356.8351062940783
 20
-235.1969497715318
 11
366.4182402375136
 21
-218.5984748857682
 72
     1
 10
366.4182402375136
 20
-218.5984748857682
 11
356.8351062940783
 21
-201.9999999999991
 97
        0
 75
     2
 76
     1
 98
        0
  0
POLYLINE
  5
99
330
51
100
AcDbEntity
  8
Capa 2
 62
   254
420
 13421772
370
     9
100
AcDb2dPolyline
 66
     1
 10
0.0
 20
0.0
 30
0.0
  0
VERTEX
  5
9A
330
99
100
AcDbEntity
  8
Capa 2
 62
   254
420
 13421772
370
     9
100
AcDbVertex
100
AcDb2dVertex
 10
356.8351062940728
 20
-239.5685592110131
 30
0.0
  0
VERTEX
  5
9B
330
99
100
AcDbEntity
  8
Capa 2
 62
   254
420
 13421772
370
     9
100
AcDbVertex
100
AcDb2dVertex
 10
337.668838407204
 20
-239.5685592110131
 30
0.0
  0
VERTEX
  5
9C
330
99
100
AcDbEntity
  8
Capa 2
 62
   254
420
 13421772
370
     9
100
AcDbVertex
100
AcDb2dVertex
 10
328.0857044637687
 20
-256.1670340967821
 30
0.0
  0
VERTEX
  5
9D
330
99
100
AcDbEntity
  8
Capa 2
 62
   254
420
 13421772
370
     9
100
AcDbVertex
100
AcDb2dVertex
 10
337.668838407204
 20
-272.7655089825457
 30
0.0
  0
VERTEX
  5
9E
330
99
100
AcDbEntity
  8
Capa 2
 62
   254
420
 13421772
370
     9
100
AcDbVertex
100
AcDb2dVertex
 10
356.8351062940728
 20
-272.7655089825457
 30
0.0
  0
VERTEX
  5
9F
330
99
100
AcDbEntity
  8
Capa 2
 62
   254
420
 13421772
370
     9
100
AcDbVertex
100
AcDb2dVertex
 10
366.4182402375136
 20
-256.1670340967821
 30
0.0
  0
VERTEX
  5
A0
330
99
100
AcDbEntity
  8
Capa 2
 62
   254
420
 13421772
370
     9
100
AcDbVertex
100
AcDb2dVertex
 10
356.8351062940728
 20
-239.5685592110131
 30
0.0
  0
SEQEND
  5
A2
330
99
100
AcDbEntity
  8
Capa 2
 62
   254
420
 13421772
370
     9
  0
HATCH
  5
A1
330
51
100
AcDbEntity
  8
Capa 2
 62
     7
420
 15921906
100
AcDbHatch
 10
0.0
 20
0.0
 30
0.0
210
0.0
220
0.0
230
1.0
  2
SOLID
 70
     1
 71
     0
 91
        1
 92
        1
 93
        6
 72
     1
 10
356.8351062940728
 20
-239.5685592110131
 11
337.668838407204
 21
-239.5685592110131
 72
     1
 10
337.668838407204
 20
-239.5685592110131
 11
328.0857044637687
 21
-256.1670340967821
 72
     1
 10
328.0857044637687
 20
-256.1670340967821
 11
337.668838407204
 21
-272.7655089825457
 72
     1
 10
337.668838407204
 20
-272.7655089825457
 11
356.8351062940728
 21
-272.7655089825457
 72
     1
 10
356.8351062940728
 20
-272.7655089825457
 11
366.4182402375136
 21
-256.1670340967821
 72
     1
 10
366.4182402375136
 20
-256.1670340967821
 11
356.8351062940728
 21
-239.5685592110131
 97
        0
 75
     2
 76
     1
 98
        0
  0
POLYLINE
  5
A3
330
51
100
AcDbEntity
  8
Capa 2
 62
   253
420
 10066329
370
     9
100
AcDb2dPolyline
 66
     1
 10
0.0
 20
0.0
 30
0.0
  0
VERTEX
  5
A4
330
A3
100
AcDbEntity
  8
Capa 2
 62
   253
420
 10066329
370
     9
100
AcDbVertex
100
AcDb2dVertex
 10
398.7817406667527
 20
-237.1029674036108
 30
0.0
  0
VERTEX
  5
A5
330
A3
100
AcDbEntity
  8
Capa 2
 62
   253
420
 10066329
370
     9
100
AcDbVertex
100
AcDb2dVertex
 10
389.198607051143
 20
-220.5044923285795
 30
0.0
  0
VERTEX
  5
A6
330
A3
100
AcDbEntity
  8
Capa 2
 62
   253
420
 10066329
370
     9
100
AcDbVertex
100
AcDb2dVertex
 10
370.0323391642723
 20
-220.504491950046
 30
0.0
  0
VERTEX
  5
A7
330
A3
100
AcDbEntity
  8
Capa 2
 62
   253
420
 10066329
370
     9
100
AcDbVertex
100
AcDb2dVertex
 10
360.4492048930151
 20
-237.1029666465465
 30
0.0
  0
VERTEX
  5
A8
330
A3
100
AcDbEntity
  8
Capa 2
 62
   253
420
 10066329
370
     9
100
AcDbVertex
100
AcDb2dVertex
 10
370.0323385086303
 20
-253.7014417215769
 30
0.0
  0
VERTEX
  5
A9
330
A3
100
AcDbEntity
  8
Capa 2
 62
   253
420
 10066329
370
     9
100
AcDbVertex
100
AcDb2dVertex
 10
389.1986063954992
 20
-253.7014421001168
 30
0.0
  0
VERTEX
  5
AA
330
A3
100
AcDbEntity
  8
Capa 2
 62
   253
420
 10066329
370
     9
100
AcDbVertex
100
AcDb2dVertex
 10
398.7817406667527
 20
-237.1029674036108
 30
0.0
  0
SEQEND
  5
AC
330
A3
100
AcDbEntity
  8
Capa 2
 62
   253
420
 10066329
370
     9
  0
HATCH
  5
AB
330
51
100
AcDbEntity
  8
Capa 2
 62
   253
420
 11776947
100
AcDbHatch
 10
0.0
 20
0.0
 30
0.0
210
0.0
220
0.0
230
1.0
  2
SOLID
 70
     1
 71
     0
 91
        1
 92
        1
 93
        6
 72
     1
 10
398.7817406667527
 20
-237.1029674036108
 11
389.198607051143
 21
-220.5044923285795
 72
     1
 10
389.198607051143
 20
-220.5044923285795
 11
370.0323391642723
 21
-220.504491950046
 72
     1
 10
370.0323391642723
 20
-220.504491950046
 11
360.4492048930151
 21
-237.1029666465465
 72
     1
 10
360.4492048930151
 20
-237.1029666465465
 11
370.0323385086303
 21
-253.7014417215769
 72
     1
 10
370.0323385086303
 20
-253.7014417215769
 11
389.1986063954992
 21
-253.7014421001168
 72
     1
 10
389.1986063954992
 20
-253.7014421001168
 11
398.7817406667527
 21
-237.1029674036108
 97
        0
 75
     2
 76
     1
 98
        0
  0
POLYLINE
  5
AD
330
51
100
AcDbEntity
  8
Capa 2
370
     0
100
AcDb2dPolyline
 66
     1
 10
0.0
 20
0.0
 30
0.0
  0
VERTEX
  5
AE
330
AD
100
AcDbEntity
  8
Capa 2
370
     0
100
AcDbVertex
100
AcDb2dVertex
 10
335.550795106994
 20
-237.1435724430476
 30
0.0
  0
VERTEX
  5
AF
330
AD
100
AcDbEntity
  8
Capa 2
370
     0
100
AcDbVertex
100
AcDb2dVertex
 10
325.9676614913733
 20
-220.5450973680172
 30
0.0
  0
VERTEX
  5
B0
330
AD
100
AcDbEntity
  8
Capa 2
370
     0
100
AcDbVertex
100
AcDb2dVertex
 10
306.8013936045081
 20
-220.5450969894837
 30
0.0
  0
VERTEX
  5
B1
330
AD
100
AcDbEntity
  8
Capa 2
370
     0
100
AcDbVertex
100
AcDb2dVertex
 10
297.2182593332473
 20
-237.1435716859842
 30
0.0
  0
VERTEX
  5
B2
330
AD
100
AcDbEntity
  8
Capa 2
370
     0
100
AcDbVertex
100
AcDb2dVertex
 10
306.8013929488661
 20
-253.7420467610136
 30
0.0
  0
VERTEX
  5
B3
330
AD
100
AcDbEntity
  8
Capa 2
370
     0
100
AcDbVertex
100
AcDb2dVertex
 10
325.9676608357331
 20
-253.7420471395535
 30
0.0
  0
VERTEX
  5
B4
330
AD
100
AcDbEntity
  8
Capa 2
370
     0
100
AcDbVertex
100
AcDb2dVertex
 10
335.550795106994
 20
-237.1435724430476
 30
0.0
  0
SEQEND
  5
B6
330
AD
100
AcDbEntity
  8
Capa 2
370
     0
  0
HATCH
  5
B5
330
51
100
AcDbEntity
  8
Capa 2
 62
   177
420
  3027346
100
AcDbHatch
 10
0.0
 20
0.0
 30
0.0
210
0.0
220
0.0
230
1.0
  2
SOLID
 70
     1
 71
     0
 91
        1
 92
        1
 93
        6
 72
     1
 10
335.550795106994
 20
-237.1435724430476
 11
325.9676614913733
 21
-220.5450973680172
 72
     1
 10
325.9676614913733
 20
-220.5450973680172
 11
306.8013936045081
 21
-220.5450969894837
 72
     1
 10
306.8013936045081
 20
-220.5450969894837
 11
297.2182593332473
 21
-237.1435716859842
 72
     1
 10
297.2182593332473
 20
-237.1435716859842
 11
306.8013929488661
 21
-253.7420467610136
 72
     1
 10
306.8013929488661
 20
-253.7420467610136
 11
325.9676608357331
 21
-253.7420471395535
 72
     1
 10
325.9676608357331
 20
-253.7420471395535
 11
335.550795106994
 21
-237.1435724430476
 97
        0
 75
     2
 76
     1
 98
        0
  0
ENDBLK
  5
54
330
51
100
AcDbEntity
  8
0
100
AcDbBlockEnd
  0
ENDSEC
  0
SECTION
  2
ENTITIES
  0
INSERT
  5
42
330
1F
100
AcDbEntity
  8
Capa 2
100
AcDbBlockReference
  2
block 2
 10
0.0
 20
0.0
 30
0.0
  0
INSERT
  5
4E
330
1F
100
AcDbEntity
  8
Capa 2
100
AcDbBlockReference
  2
block 3
 10
0.0
 20
0.0
 30
0.0
  0
ENDSEC
  0
SECTION
  2
OBJECTS
  0
DICTIONARY
  5
C
330
0
100
AcDbDictionary
281
     1
  3
ACAD_GROUP
350
D
  3
ACAD_LAYOUT
350
1A
  3
ACAD_MATERIAL
350
3B
  3
ACAD_MLEADERSTYLE
350
B8
  3
ACAD_MLINESTYLE
350
17
  3
ACAD_PLOTSETTINGS
350
19
  3
ACAD_PLOTSTYLENAME
350
E
  3
ACAD_TABLESTYLE
350
B7
  3
ACAD_VISUALSTYLE
350
2A
  0
SUN
  5
3F
330
29
100
AcDbSun
 90
        1
290
     0
 63
     7
421
 16777215
 40
1.0
291
     1
 91
  2455826
 92
 54000000
292
     0
 70
     2
 71
   256
280
     1
  0
DICTIONARY
  5
D
102
{ACAD_REACTORS
330
C
102
}
330
C
100
AcDbDictionary
281
     1
  0
DICTIONARY
  5
1A
102
{ACAD_REACTORS
330
C
102
}
330
C
100
AcDbDictionary
281
     1
  3
Layout1
350
1E
  3
Layout2
350
26
  3
Model
350
22
  0
DICTIONARY
  5
3B
102
{ACAD_REACTORS
330
C
102
}
330
C
100
AcDbDictionary
281
     1
  3
ByBlock
350
3D
  3
ByLayer
350
3C
  3
Global
350
3E
  0
DICTIONARY
  5
B8
102
{ACAD_REACTORS
330
C
102
}
330
C
100
AcDbDictionary
281
     1
  0
DICTIONARY
  5
17
102
{ACAD_REACTORS
330
C
102
}
330
C
100
AcDbDictionary
281
     1
  3
Standard
350
18
  0
DICTIONARY
  5
19
102
{ACAD_REACTORS
330
C
102
}
330
C
100
AcDbDictionary
281
     1
  0
ACDBDICTIONARYWDFLT
  5
E
102
{ACAD_REACTORS
330
C
102
}
330
C
100
AcDbDictionary
281
     1
  3
Normal
350
F
100
AcDbDictionaryWithDefault
340
F
  0
DICTIONARY
  5
B7
102
{ACAD_REACTORS
330
C
102
}
330
C
100
AcDbDictionary
281
     1
  0
DICTIONARY
  5
2A
102
{ACAD_REACTORS
330
C
102
}
330
C
100
AcDbDictionary
281
     1
  3
2dWireframe
350
2F
  3
3D Hidden
350
31
  3
3dWireframe
350
30
  3
Basic
350
32
  3
Brighten
350
36
  3
ColorChange
350
3A
  3
Conceptual
350
34
  3
Dim
350
35
  3
Facepattern
350
39
  3
Flat
350
2B
  3
FlatWithEdges
350
2C
  3
Gouraud
350
2D
  3
GouraudWithEdges
350
2E
  3
Linepattern
350
38
  3
Realistic
350
33
  3
Thicken
350
37
  0
LAYOUT
  5
1E
102
{ACAD_REACTORS
330
1A
102
}
330
1A
100
AcDbPlotSettings
  1

  2
none_device
  4

  6

 40
0.0
 41
0.0
 42
0.0
 43
0.0
 44
0.0
 45
0.0
 46
0.0
 47
0.0
 48
0.0
 49
0.0
140
0.0
141
0.0
142
1.0
143
1.0
 70
   688
 72
     0
 73
     0
 74
     5
  7

 75
    16
 76
     0
 77
     2
 78
   300
147
1.0
148
0.0
149
0.0
100
AcDbLayout
  1
Layout1
 70
     1
 71
     1
 10
0.0
 20
0.0
 11
12.0
 21
9.0
 12
0.0
 22
0.0
 32
0.0
 14
1.000000000000000E+20
 24
1.000000000000000E+20
 34
1.000000000000000E+20
 15
-1.000000000000000E+20
 25
-1.000000000000000E+20
 35
-1.000000000000000E+20
146
0.0
 13
0.0
 23
0.0
 33
0.0
 16
1.0
 26
0.0
 36
0.0
 17
0.0
 27
1.0
 37
0.0
 76
     0
330
1B
  0
LAYOUT
  5
26
102
{ACAD_REACTORS
330
1A
102
}
330
1A
100
AcDbPlotSettings
  1

  2
none_device
  4

  6

 40
0.0
 41
0.0
 42
0.0
 43
0.0
 44
0.0
 45
0.0
 46
0.0
 47
0.0
 48
0.0
 49
0.0
140
0.0
141
0.0
142
1.0
143
1.0
 70
   688
 72
     0
 73
     0
 74
     5
  7

 75
    16
 76
     0
 77
     2
 78
   300
147
1.0
148
0.0
149
0.0
100
AcDbLayout
  1
Layout2
 70
     1
 71
     2
 10
0.0
 20
0.0
 11
0.0
 21
0.0
 12
0.0
 22
0.0
 32
0.0
 14
0.0
 24
0.0
 34
0.0
 15
0.0
 25
0.0
 35
0.0
146
0.0
 13
0.0
 23
0.0
 33
0.0
 16
1.0
 26
0.0
 36
0.0
 17
0.0
 27
1.0
 37
0.0
 76
     0
330
23
  0
LAYOUT
  5
22
102
{ACAD_REACTORS
330
1A
102
}
330
1A
100
AcDbPlotSettings
  1

  2
none_device
  4

  6

 40
0.0
 41
0.0
 42
0.0
 43
0.0
 44
0.0
 45
0.0
 46
0.0
 47
0.0
 48
0.0
 49
0.0
140
0.0
141
0.0
142
1.0
143
1.0
 70
  1712
 72
     0
 73
     0
 74
     0
  7

 75
     0
 76
     0
 77
     2
 78
   300
147
1.0
148
0.0
149
0.0
100
AcDbLayout
  1
Model
 70
     1
 71
     0
 10
0.0
 20
0.0
 11
12.0
 21
9.0
 12
0.0
 22
0.0
 32
0.0
 14
1.000000000000000E+20
 24
1.000000000000000E+20
 34
1.000000000000000E+20
 15
-1.000000000000000E+20
 25
-1.000000000000000E+20
 35
-1.000000000000000E+20
146
0.0
 13
0.0
 23
0.0
 33
0.0
 16
1.0
 26
0.0
 36
0.0
 17
0.0
 27
1.0
 37
0.0
 76
     0
330
1F
331
29
  0
MATERIAL
  5
3D
102
{ACAD_REACTORS
330
3B
102
}
330
3B
100
AcDbMaterial
  1
ByBlock
 72
     1
 94
      127
  0
MATERIAL
  5
3C
102
{ACAD_REACTORS
330
3B
102
}
330
3B
100
AcDbMaterial
  1
ByLayer
 72
     1
 94
      127
  0
MATERIAL
  5
3E
102
{ACAD_REACTORS
330
3B
102
}
330
3B
100
AcDbMaterial
  1
Global
 72
     1
 94
      127
  0
MLINESTYLE
  5
18
102
{ACAD_REACTORS
330
17
102
}
330
17
100
AcDbMlineStyle
  2
Standard
 70
     0
  3

 62
   256
 51
90.0
 52
90.0
 71
     2
 49
0.5
 62
   256
  6
BYLAYER
 49
-0.5
 62
   256
  6
BYLAYER
  0
ACDBPLACEHOLDER
  5
F
102
{ACAD_REACTORS
330
E
102
}
330
E
  0
VISUALSTYLE
  5
2F
102
{ACAD_REACTORS
330
2A
102
}
330
2A
100
AcDbVisualStyle
  2
2dWireframe
 70
     4
177
     2
291
     0
 71
     0
176
     1
 72
     2
176
     1
 73
     0
176
     1
 90
        0
176
     1
 40
-0.6
176
     1
 41
-30.0
176
     1
 62
     5
 63
     7
421
 16777215
176
     1
 74
     1
176
     1
 91
        4
176
     1
 64
     7
176
     1
 65
   257
176
     1
 75
     1
176
     1
175
     1
176
     1
 42
1.0
176
     1
 92
        0
176
     1
 66
   257
176
     1
 43
1.0
176
     1
 76
     1
176
     1
 77
     6
176
     1
 78
     2
176
     1
 67
     7
176
     1
 79
     5
176
     1
170
     0
176
     1
171
     0
176
     1
290
     0
176
     1
 93
        1
176
     1
 44
0.0
176
     1
173
     0
176
     1
  0
VISUALSTYLE
  5
31
102
{ACAD_REACTORS
330
2A
102
}
330
2A
100
AcDbVisualStyle
  2
3D Hidden
 70
     6
177
     2
291
     0
 71
     1
176
     1
 72
     2
176
     1
 73
     2
176
     1
 90
        0
176
     1
 40
-0.6
176
     1
 41
-30.0
176
     1
 62
     5
 63
     7
421
 16777215
176
     1
 74
     2
176
     1
 91
        2
176
     1
 64
     7
176
     1
 65
   257
176
     1
 75
     2
176
     1
175
     1
176
     1
 42
40.0
176
     1
 92
        0
176
     1
 66
   257
176
     1
 43
1.0
176
     1
 76
     1
176
     1
 77
     6
176
     1
 78
     2
176
     1
 67
     7
176
     1
 79
     3
176
     1
170
     0
176
     1
171
     0
176
     1
290
     0
176
     1
 93
        1
176
     1
 44
0.0
176
     1
173
     0
176
     1
  0
VISUALSTYLE
  5
30
102
{ACAD_REACTORS
330
2A
102
}
330
2A
100
AcDbVisualStyle
  2
3dWireframe
 70
     5
177
     2
291
     0
 71
     0
176
     1
 72
     2
176
     1
 73
     0
176
     1
 90
        0
176
     1
 40
-0.6
176
     1
 41
-30.0
176
     1
 62
     5
 63
     7
421
 16777215
176
     1
 74
     1
176
     1
 91
        4
176
     1
 64
     7
176
     1
 65
   257
176
     1
 75
     1
176
     1
175
     1
176
     1
 42
1.0
176
     1
 92
        0
176
     1
 66
   257
176
     1
 43
1.0
176
     1
 76
     1
176
     1
 77
     6
176
     1
 78
     2
176
     1
 67
     7
176
     1
 79
     5
176
     1
170
     0
176
     1
171
     0
176
     1
290
     0
176
     1
 93
        1
176
     1
 44
0.0
176
     1
173
     0
176
     1
  0
VISUALSTYLE
  5
32
102
{ACAD_REACTORS
330
2A
102
}
330
2A
100
AcDbVisualStyle
  2
Basic
 70
     7
177
     2
291
     1
 71
     1
176
     1
 72
     0
176
     1
 73
     1
176
     1
 90
        0
176
     1
 40
-0.6
176
     1
 41
-30.0
176
     1
 62
     5
 63
     7
421
 16777215
176
     1
 74
     0
176
     1
 91
        4
176
     1
 64
     7
176
     1
 65
   257
176
     1
 75
     1
176
     1
175
     1
176
     1
 42
1.0
176
     1
 92
        8
176
     1
 66
     7
176
     1
 43
1.0
176
     1
 76
     1
176
     1
 77
     6
176
     1
 78
     2
176
     1
 67
     7
176
     1
 79
     5
176
     1
170
     0
176
     1
171
     0
176
     1
290
     0
176
     1
 93
        1
176
     1
 44
0.0
176
     1
173
     0
176
     1
  0
VISUALSTYLE
  5
36
102
{ACAD_REACTORS
330
2A
102
}
330
2A
100
AcDbVisualStyle
  2
Brighten
 70
    12
177
     2
291
     1
 71
     2
176
     1
 72
     2
176
     1
 73
     0
176
     1
 90
        0
176
     1
 40
-0.6
176
     1
 41
-30.0
176
     1
 62
     5
 63
     7
421
 16777215
176
     1
 74
     1
176
     1
 91
        4
176
     1
 64
     7
176
     1
 65
   257
176
     1
 75
     1
176
     1
175
     1
176
     1
 42
1.0
176
     1
 92
        8
176
     1
 66
     7
176
     1
 43
1.0
176
     1
 76
     1
176
     1
 77
     6
176
     1
 78
     2
176
     1
 67
     7
176
     1
 79
     5
176
     1
170
     0
176
     1
171
     0
176
     1
290
     0
176
     1
 93
        1
176
     1
 44
50.0
176
     1
173
     0
176
     1
  0
VISUALSTYLE
  5
3A
102
{ACAD_REACTORS
330
2A
102
}
330
2A
100
AcDbVisualStyle
  2
ColorChange
 70
    16
177
     2
291
     1
 71
     2
176
     1
 72
     2
176
     1
 73
     3
176
     1
 90
        0
176
     1
 40
-0.6
176
     1
 41
-30.0
176
     1
 62
     5
 63
     8
421
  8421504
176
     1
 74
     1
176
     1
 91
        4
176
     1
 64
     7
176
     1
 65
   257
176
     1
 75
     1
176
     1
175
     1
176
     1
 42
1.0
176
     1
 92
        8
176
     1
 66
     8
424
  8421504
176
     1
 43
1.0
176
     1
 76
     1
176
     1
 77
     6
176
     1
 78
     2
176
     1
 67
     7
176
     1
 79
     5
176
     1
170
     0
176
     1
171
     0
176
     1
290
     0
176
     1
 93
        1
176
     1
 44
0.0
176
     1
173
     0
176
     1
  0
VISUALSTYLE
  5
34
102
{ACAD_REACTORS
330
2A
102
}
330
2A
100
AcDbVisualStyle
  2
Conceptual
 70
     9
177
     2
291
     0
 71
     3
176
     1
 72
     2
176
     1
 73
     0
176
     1
 90
        0
176
     1
 40
-0.6
176
     1
 41
-30.0
176
     1
 62
     5
 63
     7
421
 16777215
176
     1
 74
     2
176
     1
 91
        2
176
     1
 64
     7
176
     1
 65
   257
176
     1
 75
     1
176
     1
175
     1
176
     1
 42
40.0
176
     1
 92
        8
176
     1
 66
     7
176
     1
 43
1.0
176
     1
 76
     1
176
     1
 77
     6
176
     1
 78
     2
176
     1
 67
     7
176
     1
 79
     3
176
     1
170
     0
176
     1
171
     0
176
     1
290
     0
176
     1
 93
        1
176
     1
 44
0.0
176
     1
173
     0
176
     1
  0
VISUALSTYLE
  5
35
102
{ACAD_REACTORS
330
2A
102
}
330
2A
100
AcDbVisualStyle
  2
Dim
 70
    11
177
     2
291
     1
 71
     2
176
     1
 72
     2
176
     1
 73
     0
176
     1
 90
        0
176
     1
 40
-0.6
176
     1
 41
-30.0
176
     1
 62
     5
 63
     7
421
 16777215
176
     1
 74
     1
176
     1
 91
        4
176
     1
 64
     7
176
     1
 65
   257
176
     1
 75
     1
176
     1
175
     1
176
     1
 42
1.0
176
     1
 92
        8
176
     1
 66
     7
176
     1
 43
1.0
176
     1
 76
     1
176
     1
 77
     6
176
     1
 78
     2
176
     1
 67
     7
176
     1
 79
     5
176
     1
170
     0
176
     1
171
     0
176
     1
290
     0
176
     1
 93
        1
176
     1
 44
-50.0
176
     1
173
     0
176
     1
  0
VISUALSTYLE
  5
39
102
{ACAD_REACTORS
330
2A
102
}
330
2A
100
AcDbVisualStyle
  2
Facepattern
 70
    15
177
     2
291
     1
 71
     2
176
     1
 72
     2
176
     1
 73
     0
176
     1
 90
        0
176
     1
 40
-0.6
176
     1
 41
-30.0
176
     1
 62
     5
 63
     7
421
 16777215
176
     1
 74
     1
176
     1
 91
        4
176
     1
 64
     7
176
     1
 65
   257
176
     1
 75
     1
176
     1
175
     1
176
     1
 42
1.0
176
     1
 92
        8
176
     1
 66
     7
176
     1
 43
1.0
176
     1
 76
     1
176
     1
 77
     6
176
     1
 78
     2
176
     1
 67
     7
176
     1
 79
     5
176
     1
170
     0
176
     1
171
     0
176
     1
290
     0
176
     1
 93
        1
176
     1
 44
0.0
176
     1
173
     0
176
     1
  0
VISUALSTYLE
  5
2B
102
{ACAD_REACTORS
330
2A
102
}
330
2A
100
AcDbVisualStyle
  2
Flat
 70
     0
177
     2
291
     1
 71
     2
176
     1
 72
     1
176
     1
 73
     1
176
     1
 90
        2
176
     1
 40
-0.6
176
     1
 41
30.0
176
     1
 62
     5
 63
     7
421
 16777215
176
     1
 74
     0
176
     1
 91
        4
176
     1
 64
     7
176
     1
 65
   257
176
     1
 75
     1
176
     1
175
     1
176
     1
 42
1.0
176
     1
 92
        8
176
     1
 66
     7
176
     1
 43
1.0
176
     1
 76
     1
176
     1
 77
     6
176
     1
 78
     2
176
     1
 67
     7
176
     1
 79
     5
176
     1
170
     0
176
     1
171
     0
176
     1
290
     0
176
     1
 93
       13
176
     1
 44
0.0
176
     1
173
     0
176
     1
  0
VISUALSTYLE
  5
2C
102
{ACAD_REACTORS
330
2A
102
}
330
2A
100
AcDbVisualStyle
  2
FlatWithEdges
 70
     1
177
     2
291
     1
 71
     2
176
     1
 72
     1
176
     1
 73
     1
176
     1
 90
        2
176
     1
 40
-0.6
176
     1
 41
30.0
176
     1
 62
     5
 63
     7
421
 16777215
176
     1
 74
     1
176
     1
 91
        4
176
     1
 64
     7
176
     1
 65
   257
176
     1
 75
     1
176
     1
175
     1
176
     1
 42
1.0
176
     1
 92
        0
176
     1
 66
   257
176
     1
 43
1.0
176
     1
 76
     1
176
     1
 77
     6
176
     1
 78
     2
176
     1
 67
     7
176
     1
 79
     5
176
     1
170
     0
176
     1
171
     0
176
     1
290
     0
176
     1
 93
       13
176
     1
 44
0.0
176
     1
173
     0
176
     1
  0
VISUALSTYLE
  5
2D
102
{ACAD_REACTORS
330
2A
102
}
330
2A
100
AcDbVisualStyle
  2
Gouraud
 70
     2
177
     2
291
     1
 71
     2
176
     1
 72
     2
176
     1
 73
     1
176
     1
 90
        2
176
     1
 40
-0.6
176
     1
 41
30.0
176
     1
 62
     5
 63
     7
421
 16777215
176
     1
 74
     0
176
     1
 91
        4
176
     1
 64
     7
176
     1
 65
   257
176
     1
 75
     1
176
     1
175
     1
176
     1
 42
1.0
176
     1
 92
        0
176
     1
 66
     7
176
     1
 43
1.0
176
     1
 76
     1
176
     1
 77
     6
176
     1
 78
     2
176
     1
 67
     7
176
     1
 79
     5
176
     1
170
     0
176
     1
171
     0
176
     1
290
     0
176
     1
 93
       13
176
     1
 44
0.0
176
     1
173
     0
176
     1
  0
VISUALSTYLE
  5
2E
102
{ACAD_REACTORS
330
2A
102
}
330
2A
100
AcDbVisualStyle
  2
GouraudWithEdges
 70
     3
177
     2
291
     1
 71
     2
176
     1
 72
     2
176
     1
 73
     1
176
     1
 90
        2
176
     1
 40
-0.6
176
     1
 41
30.0
176
     1
 62
     5
 63
     7
421
 16777215
176
     1
 74
     1
176
     1
 91
        4
176
     1
 64
     7
176
     1
 65
   257
176
     1
 75
     1
176
     1
175
     1
176
     1
 42
1.0
176
     1
 92
        0
176
     1
 66
   257
176
     1
 43
1.0
176
     1
 76
     1
176
     1
 77
     6
176
     1
 78
     2
176
     1
 67
     7
176
     1
 79
     5
176
     1
170
     0
176
     1
171
     0
176
     1
290
     0
176
     1
 93
       13
176
     1
 44
0.0
176
     1
173
     0
176
     1
  0
VISUALSTYLE
  5
38
102
{ACAD_REACTORS
330
2A
102
}
330
2A
100
AcDbVisualStyle
  2
Linepattern
 70
    14
177
     2
291
     1
 71
     2
176
     1
 72
     2
176
     1
 73
     0
176
     1
 90
        0
176
     1
 40
-0.6
176
     1
 41
-30.0
176
     1
 62
     5
 63
     7
421
 16777215
176
     1
 74
     1
176
     1
 91
        4
176
     1
 64
     7
176
     1
 65
   257
176
     1
 75
     7
176
     1
175
     7
176
     1
 42
1.0
176
     1
 92
        8
176
     1
 66
     7
176
     1
 43
1.0
176
     1
 76
     1
176
     1
 77
     6
176
     1
 78
     2
176
     1
 67
     7
176
     1
 79
     5
176
     1
170
     0
176
     1
171
     0
176
     1
290
     0
176
     1
 93
        1
176
     1
 44
0.0
176
     1
173
     0
176
     1
  0
VISUALSTYLE
  5
33
102
{ACAD_REACTORS
330
2A
102
}
330
2A
100
AcDbVisualStyle
  2
Realistic
 70
     8
177
     2
291
     0
 71
     2
176
     1
 72
     2
176
     1
 73
     0
176
     1
 90
        0
176
     1
 40
-0.6
176
     1
 41
-30.0
176
     1
 62
     5
 63
     7
421
 16777215
176
     1
 74
     1
176
     1
 91
        0
176
     1
 64
     7
176
     1
 65
   257
176
     1
 75
     1
176
     1
175
     1
176
     1
 42
1.0
176
     1
 92
        8
176
     1
 66
     8
424
  7895160
176
     1
 43
1.0
176
     1
 76
     1
176
     1
 77
     6
176
     1
 78
     2
176
     1
 67
     7
176
     1
 79
     5
176
     1
170
     0
176
     1
171
     0
176
     1
290
     0
176
     1
 93
       13
176
     1
 44
0.0
176
     1
173
     0
176
     1
  0
VISUALSTYLE
  5
37
102
{ACAD_REACTORS
330
2A
102
}
330
2A
100
AcDbVisualStyle
  2
Thicken
 70
    13
177
     2
291
     1
 71
     2
176
     1
 72
     2
176
     1
 73
     0
176
     1
 90
        0
176
     1
 40
-0.6
176
     1
 41
-30.0
176
     1
 62
     5
 63
     7
421
 16777215
176
     1
 74
     1
176
     1
 91
        4
176
     1
 64
     7
176
     1
 65
   257
176
     1
 75
     1
176
     1
175
     1
176
     1
 42
1.0
176
     1
 92
       12
176
     1
 66
     7
176
     1
 43
1.0
176
     1
 76
     1
176
     1
 77
     6
176
     1
 78
     2
176
     1
 67
     7
176
     1
 79
     5
176
     1
170
     0
176
     1
171
     0
176
     1
290
     0
176
     1
 93
        1
176
     1
 44
0.0
176
     1
173
     0
176
     1
  0
ENDSEC
  0
EOF
